<svg width="69" height="69" viewBox="0 0 69 69" fill="none" xmlns="http://www.w3.org/2000/svg">
<path fill-rule="evenodd" clip-rule="evenodd" d="M0.714844 10.35C0.714844 7.60501 1.78948 4.97245 3.70235 3.03145C5.61523 1.09044 8.20964 0 10.9148 0H44.9148C47.6201 0 50.2145 1.09044 52.1273 3.03145C54.0402 4.97245 55.1148 7.60501 55.1148 10.35V31.05C55.1148 33.795 54.0402 36.4276 52.1273 38.3686C50.2145 40.3096 47.6201 41.4 44.9148 41.4H32.7224L20.1186 54.1892C19.6431 54.6715 19.0374 55 18.378 55.133C17.7185 55.2661 17.035 55.1978 16.4138 54.9367C15.7926 54.6756 15.2617 54.2335 14.8881 53.6663C14.5145 53.0991 14.315 52.4322 14.3148 51.75V41.4H10.9148C8.20964 41.4 5.61523 40.3096 3.70235 38.3686C1.78948 36.4276 0.714844 33.795 0.714844 31.05V10.35ZM68.7148 24.15V44.85C68.7148 48.3 66.6748 55.2 58.5148 55.2H55.1148V65.55C55.1148 66.6989 54.4348 69 51.7148 69C51.0246 69 50.4636 68.8516 50.0148 68.6101L36.799 55.2H24.5148L34.7148 44.85H44.9148C49.447 44.85 58.5148 42.09 58.5148 31.05V13.8C61.9148 13.8 68.7148 15.87 68.7148 24.15Z" fill="#7C94EC"/>
</svg>
